<svg xmlns="http://www.w3.org/2000/svg" xmlns:xlink="http://www.w3.org/1999/xlink" viewBox="0 0 375.3 100"><defs><linearGradient id="a" x1="50" y1="100" x2="50" gradientUnits="userSpaceOnUse"><stop offset="0" stop-color="#ff9f43"/><stop offset="1" stop-color="#ff6b6b"/></linearGradient><linearGradient id="b" x1="50" y1="100" x2="50" y2="69.79" gradientUnits="userSpaceOnUse"><stop offset="0" stop-color="#54a0ff"/><stop offset="1" stop-color="#2e86de"/></linearGradient></defs><title>grid-logo</title><rect width="100" height="100" style="fill:url(#a)"/><circle cx="50" cy="50" r="33.69" style="fill:#feca57"/><path d="M100,71.1c-4.89,1-8.73,2.31-18.17,2.31-15.92,0-15.92-3.62-31.84-3.62s-15.92,3.62-31.84,3.62C8.72,73.41,4.88,72.14,0,71.1V100H100Z" style="fill:url(#b)"/><rect x="215.29" y="24.04" width="18.42" height="56.24" style="fill:#576574"/><polygon points="160.22 61.87 160.22 24.05 141.8 24.05 141.8 61.87 141.8 80.29 160.22 80.29 198.04 80.29 198.04 61.87 160.22 61.87" style="fill:#576574"/><path d="M279.08,24H251V80.29h28.12a28.13,28.13,0,0,0,0-56.25Zm0,37.83h-9.7V42.47h9.7a9.7,9.7,0,0,1,0,19.4Z" style="fill:#576574"/><path d="M347.18,24A28.13,28.13,0,1,0,375.3,52.17,28.13,28.13,0,0,0,347.18,24Zm0,37.83h0a9.7,9.7,0,1,1,0-19.4h0a9.7,9.7,0,0,1,0,19.4Z" style="fill:#576574"/></svg>